<?xml version="1.0" encoding="iso-8859-1"?>
<!-- Uploaded to: SVG Repo, www.svgrepo.com, Generator: SVG Repo Mixer Tools -->
<svg fill="#000000" version="1.1" id="Capa_1" xmlns="http://www.w3.org/2000/svg" xmlns:xlink="http://www.w3.org/1999/xlink" 
	 viewBox="0 0 60 60" xml:space="preserve">
<g>
	<g>
		<path d="M59,0H1C0.4,0,0,0.4,0,1v46c0,0.6,0.4,1,1,1h22v10h-3v2h4h12h4v-2h-3V48h22c0.6,0,1-0.4,1-1V1C60,0.4,59.6,0,59,0z M58,2
			v34h-2V5c0-0.6-0.4-1-1-1H5C4.4,4,4,4.4,4,5v31H2V2H58z M54,36H6V6h48V36z M35,58H25V48h10V58z M36,46H24H2v-8h3h50h3v8H36z"/>
		<path d="M22,25h4v4c0,0.6,0.4,1,1,1h6c0.6,0,1-0.4,1-1v-4h4c0.6,0,1-0.4,1-1v-6c0-0.6-0.4-1-1-1h-4v-4c0-0.6-0.4-1-1-1h-6
			c-0.6,0-1,0.4-1,1v4h-4c-0.6,0-1,0.4-1,1v6C21,24.6,21.4,25,22,25z M23,19h4c0.6,0,1-0.4,1-1v-4h4v4c0,0.6,0.4,1,1,1h4v4h-4
			c-0.6,0-1,0.4-1,1v4h-4v-4c0-0.6-0.4-1-1-1h-4V19z"/>
		<rect x="9" y="8" width="2" height="2"/>
		<rect x="13" y="8" width="2" height="2"/>
		<rect x="9" y="12" width="2" height="2"/>
		<rect x="13" y="12" width="2" height="2"/>
		<rect x="17" y="12" width="2" height="2"/>
		<rect x="17" y="28" width="2" height="2"/>
		<rect x="41" y="28" width="2" height="2"/>
		<rect x="9" y="16" width="2" height="2"/>
		<rect x="13" y="16" width="2" height="2"/>
		<rect x="9" y="20" width="2" height="2"/>
		<rect x="13" y="20" width="2" height="2"/>
		<rect x="9" y="24" width="2" height="2"/>
		<rect x="13" y="24" width="2" height="2"/>
		<rect x="9" y="28" width="2" height="2"/>
		<rect x="13" y="28" width="2" height="2"/>
		<rect x="45" y="12" width="2" height="2"/>
		<rect x="41" y="12" width="2" height="2"/>
		<rect x="49" y="12" width="2" height="2"/>
		<rect x="45" y="16" width="2" height="2"/>
		<rect x="49" y="16" width="2" height="2"/>
		<rect x="45" y="20" width="2" height="2"/>
		<rect x="49" y="20" width="2" height="2"/>
		<rect x="45" y="24" width="2" height="2"/>
		<rect x="49" y="24" width="2" height="2"/>
		<rect x="45" y="28" width="2" height="2"/>
		<rect x="49" y="28" width="2" height="2"/>
		<rect x="17" y="8" width="2" height="2"/>
		<rect x="21" y="8" width="2" height="2"/>
		<rect x="25" y="8" width="2" height="2"/>
		<rect x="29" y="8" width="2" height="2"/>
		<rect x="33" y="8" width="2" height="2"/>
		<rect x="37" y="8" width="2" height="2"/>
		<rect x="41" y="8" width="2" height="2"/>
		<rect x="45" y="8" width="2" height="2"/>
		<rect x="49" y="8" width="2" height="2"/>
		<rect x="9" y="32" width="2" height="2"/>
		<rect x="13" y="32" width="2" height="2"/>
		<rect x="17" y="32" width="2" height="2"/>
		<rect x="21" y="32" width="2" height="2"/>
		<rect x="25" y="32" width="2" height="2"/>
		<rect x="29" y="32" width="2" height="2"/>
		<rect x="33" y="32" width="2" height="2"/>
		<rect x="37" y="32" width="2" height="2"/>
		<rect x="41" y="32" width="2" height="2"/>
		<rect x="45" y="32" width="2" height="2"/>
		<rect x="49" y="32" width="2" height="2"/>
	</g>
</g>
</svg>