<?xml version="1.0" ?>
<!-- Uploaded to: SVG Repo, www.svgrepo.com, Generator: SVG Repo Mixer Tools -->
<svg width="800px" height="800px" viewBox="0 0 512 512" id="Layer_1" version="1.1" xml:space="preserve" xmlns="http://www.w3.org/2000/svg" xmlns:xlink="http://www.w3.org/1999/xlink">
<style type="text/css">
	.st0{fill:#231F20;}
</style>
<g>
<path class="st0" d="M445.7,337.3c5.7-5.7,8.8-13.2,8.8-21.2s-3.1-15.5-8.8-21.2L217.3,66.5c-11.7-11.7-30.7-11.7-42.4,0l-1.6,1.6   c-29.7-7.6-61,0.9-82.9,22.8c-21.9,21.9-30.4,53.2-22.8,82.9l-1.6,1.6c-5.7,5.7-8.8,13.2-8.8,21.2s3.1,15.5,8.8,21.2l228.4,228.4   c5.8,5.8,13.5,8.8,21.2,8.8c7.7,0,15.4-2.9,21.2-8.8l2-2c6.7,1.6,13.6,2.4,20.3,2.4c22.7,0,44.8-8.9,61.4-25.5   c21.6-21.6,30.1-52.4,23.1-81.8L445.7,337.3z M203.2,80.6L431.6,309c1.9,1.9,2.9,4.4,2.9,7.1c0,0.5,0,1-0.1,1.4l-13.1,13.1l1.4,1.4   l-22.3,22.3L157.9,111.7L189,80.6c1.9-2,4.5-2.9,7.1-2.9S201.2,78.7,203.2,80.6z M367.6,387.2L125,144.6l2.5-2.5l242.6,242.6   L367.6,387.2z M384.2,370.6L141.6,128l2.1-2.1l242.6,242.6L384.2,370.6z M104.5,105c13.8-13.8,32.5-20.7,51.3-19.5L85,156.4   C83.8,137.5,90.7,118.9,104.5,105z M308.5,432.1L80.1,203.7c-1.9-1.9-2.9-4.4-2.9-7.1s1-5.2,2.9-7.1l30.8-30.8l242.6,242.6   l-21.2,21.2l-1.4-1.4l-13.8,13.8C314,435.3,310.9,434.4,308.5,432.1z M406.5,407c-13.4,13.4-31.6,20.3-50,19.6l69.6-69.6   C426.8,375.4,419.9,393.5,406.5,407z"/>
<rect class="st0" height="12" transform="matrix(0.7071 -0.7071 0.7071 0.7071 -13.6782 181.3149)" width="20" x="202" y="101.2"/>
<rect class="st0" height="12" transform="matrix(0.7071 -0.7071 0.7071 0.7071 -69.9138 317.0794)" width="20" x="337.8" y="236.9"/>
<rect class="st0" height="12" transform="matrix(0.7071 -0.7071 0.7071 0.7071 -20.7077 198.2854)" width="20" x="219" y="118.1"/>
<rect class="st0" height="12" transform="matrix(0.7071 -0.7071 0.7071 0.7071 -6.6487 164.3442)" width="20" x="185.1" y="84.2"/>
<rect class="st0" height="12" transform="matrix(0.7071 -0.7071 0.7071 0.7071 -27.7361 215.2606)" width="20" x="236" y="135.1"/>
<rect class="st0" height="12" transform="matrix(0.7071 -0.7071 0.7071 0.7071 -98.0313 384.9614)" width="20" x="405.7" y="304.8"/>
<rect class="st0" height="12" transform="matrix(0.7071 -0.7071 0.7071 0.7071 -91.0017 367.9909)" width="20" x="388.7" y="287.8"/>
<rect class="st0" height="12" transform="matrix(0.7071 -0.7071 0.7071 0.7071 -83.9722 351.0203)" width="20" x="371.7" y="270.9"/>
<rect class="st0" height="12" transform="matrix(0.7071 -0.7071 0.7071 0.7071 -55.8547 283.1382)" width="20" x="303.9" y="203"/>
<rect class="st0" height="12" transform="matrix(0.7071 -0.7071 0.7071 0.7071 -62.8842 300.1088)" width="20" x="320.8" y="220"/>
<rect class="st0" height="12" transform="matrix(0.7071 -0.7071 0.7071 0.7071 -76.9421 334.0574)" width="20" x="354.8" y="253.9"/>
<rect class="st0" height="12" transform="matrix(0.7071 -0.7071 0.7071 0.7071 -48.8252 266.1674)" width="20" x="286.9" y="186"/>
<rect class="st0" height="12" transform="matrix(0.7071 -0.7071 0.7071 0.7071 -41.7956 249.197)" width="20" x="269.9" y="169.1"/>
<rect class="st0" height="12" transform="matrix(0.7071 -0.7071 0.7071 0.7071 -34.7639 232.2368)" width="20" x="252.9" y="152.1"/>
<rect class="st0" height="12" transform="matrix(0.7071 -0.7071 0.7071 0.7071 -132.3889 171.9075)" width="20" x="131.3" y="239.8"/>
<rect class="st0" height="12" transform="matrix(0.7071 -0.7071 0.7071 0.7071 -188.6266 307.6882)" width="20" x="267.1" y="375.5"/>
<rect class="st0" height="12" transform="matrix(0.7071 -0.7071 0.7071 0.7071 -181.5949 290.7014)" width="20" x="250.1" y="358.6"/>
<rect class="st0" height="12" transform="matrix(0.7071 -0.7071 0.7071 0.7071 -167.5358 256.7605)" width="20" x="216.2" y="324.6"/>
<rect class="st0" height="12" transform="matrix(0.7071 -0.7071 0.7071 0.7071 -174.5653 273.731)" width="20" x="233.1" y="341.6"/>
<rect class="st0" height="12" transform="matrix(0.7071 -0.7071 0.7071 0.7071 -202.6828 341.613)" width="20" x="301" y="409.5"/>
<rect class="st0" height="12" transform="matrix(0.7071 -0.7071 0.7071 0.7071 -195.6545 324.651)" width="20" x="284.1" y="392.5"/>
<rect class="st0" height="12" transform="matrix(0.7071 -0.7071 0.7071 0.7071 -146.4484 205.8542)" width="20" x="165.3" y="273.7"/>
<rect class="st0" height="12" transform="matrix(0.7071 -0.7071 0.7071 0.7071 -125.3592 154.9371)" width="20" x="114.3" y="222.8"/>
<rect class="st0" height="12" transform="matrix(0.7071 -0.7071 0.7071 0.7071 -139.4176 188.878)" width="20" x="148.3" y="256.7"/>
<rect class="st0" height="12" transform="matrix(0.7071 -0.7071 0.7071 0.7071 -118.3297 137.9665)" width="20" x="97.4" y="205.8"/>
<rect class="st0" height="12" transform="matrix(0.7071 -0.7071 0.7071 0.7071 -153.4768 222.8191)" width="20" x="182.2" y="290.7"/>
<rect class="st0" height="12" transform="matrix(0.7071 -0.7071 0.7071 0.7071 -160.5075 239.7962)" width="20" x="199.2" y="307.6"/>
<rect class="st0" height="12" transform="matrix(0.7071 -0.7071 0.7071 0.7071 -111.3002 120.9958)" width="20" x="80.4" y="188.8"/>
</g>
</svg>